<?xml version="1.0" encoding="UTF-8"?>
<svg id="Layer_1" xmlns="http://www.w3.org/2000/svg" version="1.1" viewBox="0 0 92 92">
  <!-- Generator: Adobe Illustrator 29.3.1, SVG Export Plug-In . SVG Version: 2.1.0 Build 151)  -->
  <defs>
    <style>
      .st0 {
        fill: #d8a054;
      }
    </style>
  </defs>
  <path class="st0" d="M56,83.4v-10.2c0-.8-.6-1.4-1.4-1.4h-1.9c-1.3-3.4-1.9-6.7-2.2-9.2,2.3-.7,4.3-1.9,6.1-3.7,12.6-.7,25.2-7.5,25.2-21.4s-1.9-4.3-4.3-4.3h-12.9c0-.7,0-1.2,0-1.7,1.6-.6,2.8-2.2,2.8-4s-1.9-4.3-4.3-4.3H28.8c-2.4,0-4.3,1.9-4.3,4.3s1.2,3.4,2.8,4c0,.5,0,1,0,1.7h-12.9c-2.4,0-4.3,1.9-4.3,4.3,0,13.9,12.5,20.7,25.2,21.4,1.8,1.8,3.8,3,6.1,3.7-.3,2.5-.9,5.8-2.2,9.2h-1.9c-.8,0-1.4.6-1.4,1.4v10.2c-3.3.7-5.7,3.6-5.7,7s.6,1.4,1.4,1.4h28.6c.8,0,1.4-.6,1.4-1.4,0-3.5-2.5-6.3-5.7-7h0ZM77.5,36c.8,0,1.4.6,1.4,1.4,0,11.1-9.5,17-19.8,18.3.6-1,1.2-2.1,1.7-3.2,4.9-1,13.1-3.8,14.9-12,0-.4,0-.9-.3-1.2s-.7-.5-1.1-.5h-10.1c.1-1,.2-2,.2-2.9h13,0ZM63.9,41.7h8.5c-1.9,4.5-6.6,6.6-10.3,7.6.8-2.5,1.4-5.2,1.8-7.6h0ZM28.8,26h34.4c.8,0,1.4.6,1.4,1.4s-.6,1.4-1.4,1.4H28.8c-.8,0-1.4-.6-1.4-1.4s.6-1.4,1.4-1.4ZM29.9,49.3c-3.7-1-8.4-3.1-10.3-7.6h8.5c.4,2.5.9,5.1,1.8,7.6ZM13.1,37.4c0-.8.6-1.4,1.4-1.4h13c0,.9.1,1.8.2,2.9h-10.1c-.4,0-.8.2-1.1.5s-.4.8-.3,1.2c1.8,8.2,10,11,14.9,12,.5,1.1,1.1,2.2,1.7,3.2-10.3-1.3-19.8-7.2-19.8-18.3h0ZM30.2,31.7h31.5c0,4.4-.5,18.2-7,24.9-2.4,2.5-5.3,3.7-8.8,3.7s-6.4-1.2-8.8-3.7c-6.4-6.7-7-20.5-7-24.9h0ZM44.3,63.1c.6,0,1.1,0,1.7,0s1.2,0,1.7,0c.3,2.4.9,5.5,1.9,8.7h-7.4c1.1-3.2,1.6-6.3,1.9-8.7h0ZM53.2,74.6v8.6h-14.3v-8.6h14.3ZM33.4,89c.6-1.7,2.2-2.9,4.1-2.9h17.2c1.9,0,3.5,1.2,4.1,2.9h-25.3Z"/>
  <path class="st0" d="M50.1,51.9c.2.1.4.2.7.2s.6,0,.8-.3c.4-.3.7-.9.6-1.4l-.8-4.6,3.3-3.2c.4-.4.5-.9.4-1.5-.2-.5-.6-.9-1.2-1l-4.6-.7-2-4.1c-.5-1-2.1-1-2.6,0l-2,4.1-4.6.7c-.5,0-1,.5-1.2,1-.2.5,0,1.1.4,1.5l3.3,3.2-.8,4.6c0,.5.1,1.1.6,1.4.4.3,1,.4,1.5.1l4.1-2.2,4.1,2.2h0ZM43.1,48l.4-2.4c0-.5,0-.9-.4-1.3l-1.8-1.7,2.5-.4c.5,0,.9-.4,1.1-.8l1.1-2.2,1.1,2.2c.2.4.6.7,1.1.8l2.5.4-1.8,1.7c-.3.3-.5.8-.4,1.3l.4,2.4-2.2-1.2c-.2-.1-.4-.2-.7-.2s-.5,0-.7.2l-2.2,1.2h0Z"/>
  <path class="st0" d="M41.7,77.5h8.6v2.9h-8.6v-2.9Z"/>
  <path class="st0" d="M46,11.6c.8,0,1.4-.6,1.4-1.4V1.6c0-.8-.6-1.4-1.4-1.4s-1.4.6-1.4,1.4v8.6c0,.8.6,1.4,1.4,1.4Z"/>
  <path class="st0" d="M33.2,15c.2.6.8.9,1.3.9s.4,0,.5-.1c.7-.3,1.1-1.1.8-1.9l-3.3-7.9c-.3-.7-1.1-1.1-1.9-.8-.7.3-1.1,1.1-.8,1.9l3.3,7.9Z"/>
  <path class="st0" d="M17.8,17.3c.3.3.6.4,1,.4s.7-.1,1-.4c.6-.6.6-1.5,0-2l-6.1-6.1c-.6-.6-1.5-.6-2,0s-.6,1.5,0,2l6.1,6.1Z"/>
  <path class="st0" d="M3.9,25.8l7.9,3.3c.2,0,.4.1.5.1.6,0,1.1-.3,1.3-.9.3-.7,0-1.6-.8-1.9l-7.9-3.3c-.7-.3-1.6,0-1.9.8s0,1.6.8,1.9Z"/>
  <path class="st0" d="M73.2,17.7c.4,0,.7-.1,1-.4l6.1-6.1c.6-.6.6-1.5,0-2s-1.5-.6-2,0l-6.1,6.1c-.6.6-.6,1.5,0,2,.3.3.6.4,1,.4Z"/>
  <path class="st0" d="M78.3,28.4c.2.6.8.9,1.3.9s.4,0,.5-.1l7.9-3.3c.7-.3,1.1-1.1.8-1.9s-1.1-1.1-1.9-.8l-7.9,3.3c-.7.3-1.1,1.1-.8,1.9Z"/>
  <path class="st0" d="M7.3,44.6H1.6c-.8,0-1.4.6-1.4,1.4s.6,1.4,1.4,1.4h5.7c.8,0,1.4-.6,1.4-1.4s-.6-1.4-1.4-1.4Z"/>
  <path class="st0" d="M19.5,57c-.3-.7-1.1-1.1-1.9-.8l-7.9,3.3c-.7.3-1.1,1.1-.8,1.9.2.6.8.9,1.3.9s.4,0,.5-.1l7.9-3.3c.7-.3,1.1-1.1.8-1.9Z"/>
  <path class="st0" d="M23.7,66.2l-5.9,5.9c-.6.6-.6,1.5,0,2,.3.3.6.4,1,.4s.7-.1,1-.4l5.9-5.9c.6-.6.6-1.5,0-2s-1.5-.6-2,0Z"/>
  <path class="st0" d="M68.3,66.2c-.6-.6-1.5-.6-2,0s-.6,1.5,0,2l5.9,5.9c.3.3.6.4,1,.4s.7-.1,1-.4c.6-.6.6-1.5,0-2l-5.9-5.9Z"/>
  <path class="st0" d="M82.3,59.5l-7.9-3.3c-.7-.3-1.6,0-1.9.8s0,1.6.8,1.9l7.9,3.3c.2,0,.4.1.5.1.6,0,1.1-.3,1.3-.9.3-.7,0-1.6-.8-1.9Z"/>
  <path class="st0" d="M90.4,44.6h-5.7c-.8,0-1.4.6-1.4,1.4s.6,1.4,1.4,1.4h5.7c.8,0,1.4-.6,1.4-1.4s-.6-1.4-1.4-1.4Z"/>
  <path class="st0" d="M57,15.8c.2,0,.4.1.5.1.6,0,1.1-.3,1.3-.9l3.3-7.9c.3-.7,0-1.6-.8-1.9-.7-.3-1.6,0-1.9.8l-3.3,7.9c-.3.7,0,1.6.8,1.9Z"/>
</svg>