<?xml version="1.0" encoding="UTF-8"?>
<svg id="Layer_1" xmlns="http://www.w3.org/2000/svg" version="1.1" viewBox="0 0 512 512">
  <!-- Generator: Adobe Illustrator 29.3.1, SVG Export Plug-In . SVG Version: 2.1.0 Build 151)  -->
  <defs>
    <style>
      .st0 {
        fill: #d8a054;
      }
    </style>
  </defs>
  <path class="st0" d="M157.6,294.3h196.7c3.9,0,7-3.1,7-7s-3.1-7-7-7h-196.7c-3.9,0-7,3.1-7,7s3.1,7,7,7h0Z"/>
  <path class="st0" d="M482.9,442.8h-15.5v-100.9h15.5c3.9,0,7-3.1,7-7s-3.1-7-7-7h-50.6v-81.2h11.6c3.9,0,7-3.1,7-7s-3.1-7-7-7h-54.4v-83l60.5-17.4v71.7c0,3.9,3.1,7,7,7s7-3.1,7-7v-81c0-3-2-5.7-4.9-6.7l-191.6-60.9c-1.4-.4-2.9-.4-4.2,0l-191.5,60.9c-3.7,1.2-5.7,5.1-4.5,8.8.7,2.2,2.5,4,4.7,4.6l69.3,19.9v83h-25.5c-30.1,0-54.5,24.3-54.6,54.4,0,15.7,6.8,30.7,18.6,41.1-35.4,3.8-61.1,35.5-57.3,70.9,3.5,32.8,31.1,57.7,64.1,57.7h396.4c3.9,0,7-3.1,7-7s-3.1-7-7-7h0ZM265.3,69.6l167.4,53.2-167.4,48.1-167.4-48.1,167.4-53.2ZM155.2,153.8l108.2,31.1c1.3.4,2.6.4,3.9,0l108.2-31.1v78.9h-220.2v-78.9ZM75.1,287.3c0-22.4,18.2-40.6,40.6-40.6h302.6v81.2H115.7c-22.4,0-40.6-18.2-40.6-40.6ZM36.1,392.3c0-27.9,22.6-50.4,50.5-50.5h366.9v100.9H86.5c-27.9,0-50.4-22.6-50.5-50.5Z"/>
  <path class="st0" d="M374.8,385.3h-237.6c-3.9,0-7,3.1-7,7s3.1,7,7,7h237.6c3.9,0,7-3.1,7-7s-3.1-7-7-7Z"/>
</svg>