<?xml version="1.0" encoding="UTF-8"?>
<svg id="Layer_1" xmlns="http://www.w3.org/2000/svg" version="1.1" viewBox="0 0 73 92">
  <!-- Generator: Adobe Illustrator 29.3.1, SVG Export Plug-In . SVG Version: 2.1.0 Build 151)  -->
  <defs>
    <style>
      .st0 {
        fill: #d8a054;
      }
    </style>
  </defs>
  <path class="st0" d="M66.3,33.7c-4.2-6-10.2-10.6-17.1-13.2,0,0,0,0,0,0-4-1.5-8.3-2.3-12.6-2.3-.5,0-1.1,0-1.6,0v3c.6,0,1.1,0,1.6,0,3.1,0,6.2.4,9.1,1.3,0,0,0,.2,0,.3v7.6c0,.2,0,.4.1.6,0,.2.2.4.3.5.1.1.3.3.5.3.2,0,.4.1.6.1h.9l-.9,2.6c0,.2,0,.5,0,.7,0,.2.2.5.3.7l5.7,7.2v14.7c0,.3,0,.6.2.8.1.2.4.4.6.6l6.1,3c.2.1.4.2.7.2s.5,0,.7-.2l1.8-.9,3.9,6.8c-2.6,6-6.9,11-12.3,14.6-5.4,3.6-11.8,5.5-18.3,5.5-1.5,0-3.1-.1-4.6-.3v-2.7h6.1c.2,0,.4,0,.6-.1.2,0,.4-.2.5-.3s.3-.3.3-.5.1-.4.1-.6v-3.8l5.5-4.1c.2-.1.3-.3.4-.5l4.6-9.1c0-.2.1-.4.2-.6,0-.2,0-.4,0-.6,0-.2-.2-.4-.3-.5-.1-.1-.3-.3-.5-.3l-7.6-3c-.3-.1-.7-.1-1,0l-3,1-1.1-4.5c0-.2-.1-.4-.3-.5-.1-.2-.3-.3-.4-.4l-7.6-4.6c-.3-.2-.6-.2-1-.2-.3,0-.6.2-.9.4l-3.6,3.6-6-4.8v-3.8h7.6c.2,0,.4,0,.6-.1s.4-.2.5-.3l12.2-12.2c.1-.1.3-.3.3-.5,0-.2.1-.4.1-.6s0-.4-.1-.6c0-.2-.2-.4-.3-.5l-4.6-4.6-2.2,2.2,3.5,3.5-10.6,10.6h-8.5c-.2,0-.4,0-.6.1-.2,0-.4.2-.5.3-.1.1-.3.3-.3.5,0,.2-.1.4-.1.6v6.1c0,.2,0,.5.1.7,0,.2.2.4.4.5l7.6,6.1c.3.2.7.4,1,.3.4,0,.7-.2,1-.4l3.7-3.7,6,3.6,1.4,5.5c0,.2.1.4.3.6.1.2.3.3.5.4.2.1.4.2.6.2.2,0,.4,0,.6,0l4-1.3,5.6,2.2-3.7,7.3-5.8,4.3c-.2.1-.3.3-.4.5-.1.2-.2.4-.2.7v3h-6.1c-.2,0-.4,0-.6.1-.2,0-.4.2-.5.3-.1.1-.3.3-.3.5,0,.2-.1.4-.1.6v3.7c-1.6-.4-3.1-.8-4.6-1.4v-8.4c0-.3-.1-.6-.3-.9l-4.3-5.7v-5.6c0-.2,0-.4-.1-.6,0-.2-.2-.4-.3-.5l-10.2-10.2v-19.1c0-.3-.1-.6-.3-.9-.2-.3-.5-.5-.8-.6-.3,0-.6,0-.9,0-.3.1-.6.3-.8.6C2.9,39.2.8,45,.2,51.1c-.6,6.1.3,12.2,2.7,17.8,2.4,5.6,6.1,10.6,10.9,14.4,4.8,3.8,10.4,6.4,16.4,7.4,2.1.4,4.2.5,6.3.5,7.2,0,14.3-2.2,20.3-6.2,6-4,10.7-9.8,13.4-16.4,0,0,0,0,0,0,2.3-5.7,3.2-11.9,2.5-18-.7-6.1-2.9-11.9-6.5-16.9ZM21.3,84.6c-7.7-3.9-13.6-10.7-16.4-18.8-2.8-8.2-2.4-17.1,1.2-24.9v14c0,.2,0,.4.1.6,0,.2.2.4.3.5l10.2,10.2v5.5c0,.3.1.6.3.9l4.3,5.7v6.5ZM63.2,57.9l-2.4,1.2-4.6-2.3v-14.3c0-.3-.1-.7-.3-1l-5.6-7,1.3-3.8c0-.2,0-.5,0-.7,0-.2-.1-.5-.3-.7-.1-.2-.3-.4-.5-.5-.2-.1-.5-.2-.7-.2h-1.5v-5.2h.1c7.8,3,14.2,8.9,17.8,16.5,3.7,7.6,4.3,16.2,1.9,24.2l-3.3-5.9c-.2-.3-.5-.6-.9-.7-.4-.1-.8,0-1.1,0Z"/>
  <path class="st0" d="M18.3,41.1c.2,0,.5,0,.7-.2.2,0,.4-.2.5-.4.5-.6,12.5-15.7,12.5-26.8s-1.4-7.1-4-9.7C25.4,1.4,21.9,0,18.3,0s-7.1,1.4-9.7,4c-2.6,2.6-4,6-4,9.7,0,11.1,12,26.2,12.5,26.8.1.2.3.3.5.4.2,0,.4.2.7.2ZM18.3,3c2.8,0,5.5,1.1,7.5,3.1,2,2,3.1,4.7,3.1,7.5,0,8.1-7.6,19.3-10.6,23.3-3-4.1-10.6-15.3-10.6-23.3,0-2.8,1.1-5.5,3.1-7.5,2-2,4.7-3.1,7.5-3.1Z"/>
  <path class="st0" d="M25.9,13.7c0-1.5-.4-3-1.3-4.2-.8-1.3-2-2.2-3.4-2.8-1.4-.6-2.9-.7-4.4-.4-1.5.3-2.8,1-3.9,2.1s-1.8,2.4-2.1,3.9c-.3,1.5-.1,3,.4,4.4.6,1.4,1.5,2.6,2.8,3.4,1.3.8,2.7,1.3,4.2,1.3,2,0,3.9-.8,5.4-2.2,1.4-1.4,2.2-3.4,2.2-5.4ZM13.7,13.7c0-.9.3-1.8.8-2.5.5-.8,1.2-1.3,2-1.7.8-.3,1.8-.4,2.6-.3.9.2,1.7.6,2.3,1.2.6.6,1.1,1.5,1.2,2.3.2.9,0,1.8-.3,2.6-.3.8-.9,1.5-1.7,2-.8.5-1.6.8-2.5.8-1.2,0-2.4-.5-3.2-1.3-.9-.9-1.3-2-1.3-3.2Z"/>
</svg>