<svg width="55" height="52" viewBox="0 0 55 52" fill="none" xmlns="http://www.w3.org/2000/svg">
<path fill-rule="evenodd" clip-rule="evenodd" d="M8.60038 33.9638C9.6405 34.9066 10.2931 36.2707 10.2931 37.7882C10.2931 40.6351 7.9865 42.9482 5.14554 42.9482C2.30662 42.9482 0 40.6351 0 37.7882C0 34.9394 2.30662 32.6263 5.14554 32.6263C5.7431 32.6263 6.31619 32.7285 6.84849 32.9167L8.03545 30.9165C1.35624 23.7013 1.51735 12.4059 8.51676 5.38693C15.6793 -1.79564 27.3103 -1.79564 34.4749 5.38693C36.341 7.25824 37.7197 9.43428 38.615 11.7555L41.7415 8.28081C41.0828 7.41367 40.6932 6.33383 40.6932 5.15991C40.6932 2.31307 42.9999 4.87602e-07 45.8408 4.87602e-07C48.6797 4.87602e-07 50.9864 2.31307 50.9864 5.15991C50.9864 8.00881 48.6797 10.3219 45.8408 10.3219C44.9047 10.3219 44.0277 10.0703 43.2711 9.63266L39.3227 14.0216C40.3995 18.4534 39.8163 23.2125 37.5708 27.2925L53.5071 43.2713C54.4616 44.2305 55 45.5312 55 46.8871C55 48.2431 54.4616 49.5438 53.5071 50.5029C52.5506 51.4621 51.2535 52 49.9014 52C48.5492 52 47.2521 51.4621 46.2956 50.5029L30.3614 34.5242C23.778 38.1646 15.4305 37.4488 9.54261 32.3727L8.60038 33.9638ZM37.0589 13.4857C36.2962 11.052 34.9542 8.76143 33.033 6.83285C26.6659 0.447889 16.3258 0.447889 9.95865 6.83285C3.88108 12.9274 3.60372 22.65 9.12656 29.0739L13.6419 21.4577C12.4672 20.5129 11.7146 19.0588 11.7146 17.4308C11.7146 14.584 14.0192 12.2709 16.8602 12.2709C19.7011 12.2709 22.0078 14.584 22.0078 17.4308C22.0078 17.6149 21.9976 17.7949 21.9792 17.9728L25.691 20.1386C26.6353 19.0199 28.0466 18.3102 29.619 18.3102C30.5306 18.3102 31.3852 18.5475 32.1275 18.9647L37.0589 13.4857ZM36.4573 29.0677C35.872 29.8919 35.2112 30.6793 34.4749 31.4176C33.7366 32.1579 32.9535 32.8206 32.1316 33.4075L34.8889 36.1705L39.2146 31.8328L36.4573 29.0677ZM10.6031 30.5852C17.007 36.3505 26.8759 36.146 33.033 29.9717C36.8489 26.1452 38.3784 20.8871 37.6198 15.9154L33.6775 20.2961C34.3587 21.1714 34.7666 22.2737 34.7666 23.4722C34.7666 26.319 32.46 28.6321 29.619 28.6321C26.7801 28.6321 24.4734 26.319 24.4734 23.4722C24.4734 22.9343 24.555 22.4169 24.708 21.9301L21.3429 19.9668C20.4598 21.5334 18.7813 22.5928 16.8602 22.5928C16.3748 22.5928 15.9037 22.5253 15.457 22.3985L10.6031 30.5852ZM36.3308 37.6165L47.7375 49.057C48.3106 49.6317 49.0897 49.9548 49.9014 49.9548C50.7131 49.9548 51.4901 49.6317 52.0632 49.057C52.6383 48.4823 52.9605 47.7011 52.9605 46.8871C52.9605 46.0732 52.6383 45.2939 52.0632 44.7193L40.6565 33.2787L36.3308 37.6165ZM2.03945 37.7882C2.03945 39.5062 3.4324 40.903 5.14554 40.903C6.86072 40.903 8.25367 39.5062 8.25367 37.7882C8.25367 36.0683 6.86072 34.6714 5.14554 34.6714C3.4324 34.6714 2.03945 36.0683 2.03945 37.7882ZM42.7327 5.15991C42.7327 6.87989 44.1256 8.27672 45.8408 8.27672C47.554 8.27672 48.9469 6.87989 48.9469 5.15991C48.9469 3.44199 47.554 2.04515 45.8408 2.04515C44.1256 2.04515 42.7327 3.44199 42.7327 5.15991ZM20.8534 6.14363C20.2905 6.17227 19.8113 5.73869 19.7807 5.17423C19.7521 4.61182 20.1845 4.12916 20.7453 4.10053C24.6488 3.89601 28.6176 5.28876 31.5973 8.27468C31.995 8.67348 31.995 9.3218 31.5973 9.7206C31.1975 10.1194 30.5531 10.1194 30.1533 9.7206C27.602 7.16007 24.1981 5.96775 20.8534 6.14363ZM13.7541 17.4308C13.7541 19.1508 15.145 20.5476 16.8602 20.5476C18.5753 20.5476 19.9683 19.1508 19.9683 17.4308C19.9683 15.7129 18.5753 14.3161 16.8602 14.3161C15.145 14.3161 13.7541 15.7129 13.7541 17.4308ZM26.5129 23.4722C26.5129 25.1901 27.9059 26.587 29.619 26.587C31.3342 26.587 32.7271 25.1901 32.7271 23.4722C32.7271 21.7522 31.3342 20.3554 29.619 20.3554C27.9059 20.3554 26.5129 21.7522 26.5129 23.4722Z" fill="#3D2379"/>
</svg>
