<svg width="60" height="59" viewBox="0 0 60 59" fill="none" xmlns="http://www.w3.org/2000/svg">
<path d="M37.9531 25.6142C37.9531 24.6178 37.1451 23.8098 36.1486 23.8098H16.3C15.3036 23.8098 14.4956 24.6178 14.4956 25.6142C14.4956 26.6107 15.3036 27.4187 16.3 27.4187H36.1486C37.1451 27.4187 37.9531 26.6107 37.9531 25.6142Z" fill="#3D2379"/>
<path d="M16.2961 32.9221C15.2997 32.9221 14.4917 33.7301 14.4917 34.7265C14.4917 35.723 15.2997 36.531 16.2961 36.531H26.8199C27.8163 36.531 28.6243 35.723 28.6243 34.7265C28.6243 33.7301 27.8163 32.9221 26.8199 32.9221H16.2961Z" fill="#3D2379"/>
<path d="M49.8421 25.7145C48.8456 25.7145 48.0376 26.5225 48.0376 27.5189V42.1127C48.0376 44.8434 45.8162 47.0648 43.0855 47.0648H31.016C30.625 47.0648 30.2441 47.1911 29.9313 47.4277L19.5098 55.2649C19.2451 55.4634 18.9965 55.3812 18.8722 55.313C18.7459 55.2489 18.5374 55.0905 18.5454 54.7677L18.7459 48.9334C18.7619 48.4442 18.5795 47.969 18.2407 47.6182C17.9018 47.2653 17.4327 47.0668 16.9435 47.0668H8.56097C5.83028 47.0668 3.60884 44.8474 3.60884 42.1147V18.2563C3.60884 15.5155 5.83028 13.2861 8.56097 13.2861H30.7954C31.7919 13.2861 32.5998 12.4781 32.5998 11.4817C32.5998 10.4852 31.7919 9.67725 30.7954 9.67725H8.56097C3.84141 9.67725 0 13.5267 0 18.2583V42.1147C0 46.8343 3.84141 50.6777 8.56097 50.6777H15.0749L14.9386 54.6514C14.8905 56.2834 15.7586 57.767 17.2081 58.5189C17.8277 58.8417 18.4953 59 19.1569 59C20.0451 59 20.9252 58.7133 21.6751 58.154L31.6174 50.6777H43.0835C47.8031 50.6777 51.6445 46.8363 51.6445 42.1147V27.5209C51.6465 26.5225 50.8385 25.7145 49.8421 25.7145Z" fill="#3D2379"/>
<path d="M59.5961 8.52638C59.2693 7.52393 58.4653 6.77409 57.4448 6.52147L52.8335 5.37266L50.3153 1.34279C49.1986 -0.449601 46.2835 -0.445591 45.1687 1.34279L42.6506 5.37266L38.0393 6.52147C37.0188 6.77409 36.2128 7.52393 35.888 8.52638C35.5632 9.52884 35.7717 10.6095 36.4494 11.4175L39.5049 15.0544L39.1721 19.794C39.0979 20.8446 39.563 21.841 40.4151 22.4605C40.9444 22.8455 41.5659 23.0439 42.1955 23.0439C42.5784 23.0439 42.9653 22.9698 43.3363 22.8194L47.743 21.039L52.1478 22.8194C53.1242 23.2164 54.2149 23.08 55.069 22.4625C55.9211 21.843 56.3862 20.8466 56.314 19.794L55.9812 15.0544L59.0367 11.4155C59.7124 10.6095 59.9229 9.52884 59.5961 8.52638ZM52.7473 13.2921C52.4466 13.6509 52.2962 14.1121 52.3303 14.5812L52.6511 19.1324L48.4207 17.4222C48.2042 17.334 47.9736 17.2898 47.7451 17.2898C47.5165 17.2898 47.2859 17.334 47.0694 17.4222L42.841 19.1324L43.1598 14.5812C43.1919 14.1141 43.0415 13.6509 42.7428 13.2921L39.8096 9.7995L44.2365 8.6948C44.6896 8.58052 45.0825 8.29782 45.3291 7.90085L47.7471 4.03338L50.165 7.90085C50.4136 8.29782 50.8045 8.58252 51.2577 8.6948L55.6845 9.7995L52.7473 13.2921Z" fill="#3D2379"/>
</svg>
