<svg width="70" height="70" viewBox="0 0 70 70" fill="none" xmlns="http://www.w3.org/2000/svg">
<path d="M35 0C15.6816 0.0136719 0.0273438 15.668 0 35C1.92773 81.4297 68.0859 81.416 70 35C69.9727 15.668 54.3184 0.0136719 35 0ZM35 67.8672C16.8438 67.8535 2.14648 53.1426 2.11914 35C3.92383 -8.61328 66.0762 -8.59961 67.8809 35C67.8535 53.1426 53.1562 67.8535 35 67.8672Z" fill="#3B035E"/>
<path d="M8.80495 30.6933C9.37916 30.8026 9.93971 30.4335 10.0628 29.8593C12.0999 19.8788 19.8928 12.0858 29.8733 10.0487C30.4475 9.92567 30.8167 9.3788 30.7073 8.80458C30.5979 8.23036 30.0374 7.86122 29.4632 7.9706C18.6487 10.1718 10.1995 18.6347 7.9983 29.4491C7.87526 30.0233 8.2444 30.5702 8.80495 30.6933Z" fill="#3B035E"/>
<path d="M29.873 59.9373C19.8925 57.9002 12.0996 50.1072 10.0625 40.1267C9.74801 38.8006 7.75192 39.197 7.99801 40.5506C10.1992 51.365 18.6484 59.8142 29.4629 62.0017C30.8027 62.2068 31.1992 60.2654 29.873 59.9373Z" fill="#3B035E"/>
<path d="M61.1952 39.2929C60.621 39.1835 60.0604 39.5526 59.9374 40.1268C57.9003 50.1073 50.1073 57.9003 40.1269 59.9374C39.5526 60.0604 39.1972 60.6347 39.3202 61.2089C39.4296 61.6874 39.8397 62.0292 40.3319 62.0429C51.2421 59.9374 59.8007 51.4472 62.0019 40.5507C62.1386 39.9765 61.7694 39.4159 61.1952 39.2929Z" fill="#3B035E"/>
<path d="M40.1271 10.0625C50.1076 12.0996 57.9005 19.8926 59.9376 29.873C60.2658 31.1855 62.2345 30.8027 62.0158 29.4492C59.8146 18.6348 51.3654 10.1855 40.5509 7.98436C39.9767 7.86131 39.4162 8.23045 39.2931 8.80467C39.1837 9.37889 39.5529 9.93944 40.1271 10.0625Z" fill="#3B035E"/>
<path d="M48.1249 20.5075L28.6288 28.0133C28.3554 28.1227 28.1367 28.3415 28.0273 28.6149L20.5078 48.1383C20.166 48.9586 21.0546 49.861 21.8749 49.5055L41.371 41.9997C41.6445 41.8903 41.8769 41.6715 41.9726 41.3844L49.4921 21.8747C49.8203 21.0543 48.9453 20.1793 48.1249 20.5075ZM23.3515 46.6481L29.4081 30.8981L39.1015 40.5915L23.3515 46.6481ZM40.5917 39.0876L30.8984 29.3942L46.6484 23.3376L40.5917 39.0876Z" fill="#3B035E"/>
<path d="M12.7286 34.9999C12.7286 34.412 12.2501 33.9335 11.6622 33.9335H5.30474C4.71685 33.9062 4.22467 34.371 4.21099 34.9589C4.18365 35.5741 4.70318 36.08 5.30474 36.0527H11.6622C12.2501 36.0527 12.7286 35.5741 12.7286 34.9999Z" fill="#3B035E"/>
<path d="M64.6957 33.9334H58.3383C56.9438 33.9197 56.8617 35.9705 58.2563 36.0526H64.6957C65.2836 36.0252 65.7348 35.533 65.7211 34.9588C65.6938 34.3983 65.2563 33.9471 64.6957 33.9334Z" fill="#3B035E"/>
<path d="M35 57.2712C34.4121 57.2712 33.9336 57.7498 33.9336 58.3376V64.6951C33.9609 65.283 34.4531 65.7341 35.0273 65.7205C35.5879 65.6931 36.0254 65.2556 36.0527 64.6951V58.3376C36.0664 57.7361 35.5879 57.2712 35 57.2712Z" fill="#3B035E"/>
<path d="M35 12.7147C35.5879 12.7147 36.0664 12.2361 36.0664 11.6483V5.29083C36.0391 4.70294 35.5469 4.25177 34.9727 4.26544C34.4121 4.29278 33.9746 4.73028 33.9473 5.29083V11.6619C33.9473 12.2498 34.4121 12.7147 35 12.7147Z" fill="#3B035E"/>
</svg>
