<svg width="52" height="60" viewBox="0 0 52 60" fill="none" xmlns="http://www.w3.org/2000/svg">
<path d="M26.0001 16H12C10.894 16 10 15.104 10 14C10 12.896 10.894 12 12 12H26.0001C27.1061 12 28.0001 12.896 28.0001 14C28.0001 15.104 27.1061 16 26.0001 16Z" fill="#3D2379"/>
<path d="M32.0001 26.0003H12C10.894 26.0003 10 25.1043 10 24.0003C10 22.8962 10.894 22.0002 12 22.0002H32.0001C33.1061 22.0002 34.0001 22.8962 34.0001 24.0003C34.0001 25.1043 33.1061 26.0003 32.0001 26.0003Z" fill="#3D2379"/>
<path d="M23.72 34.0003H12C10.894 34.0003 10 33.1043 10 32.0003C10 30.8962 10.894 30.0002 12 30.0002H23.72C24.826 30.0002 25.72 30.8962 25.72 32.0003C25.72 33.1043 24.826 34.0003 23.72 34.0003Z" fill="#3D2379"/>
<path d="M18.92 42H12C10.894 42 10 41.104 10 40C10 38.896 10.894 38 12 38H18.92C20.026 38 20.92 38.896 20.92 40C20.92 41.104 20.026 42 18.92 42Z" fill="#3D2379"/>
<path d="M18.9201 54.0002H10C4.48601 54.0002 0 49.5142 0 44.0001V10C0 4.48601 4.48601 0 10 0H34.0001C39.5141 0 44.0001 4.48601 44.0001 10V26.4001C44.0001 27.5041 43.1061 28.4001 42.0001 28.4001C40.8941 28.4001 40.0001 27.5041 40.0001 26.4001V10C40.0001 6.69202 37.3081 4.00001 34.0001 4.00001H10C6.69202 4.00001 4.00001 6.69202 4.00001 10V44.0001C4.00001 47.3082 6.69202 50.0002 10 50.0002H18.9201C20.0261 50.0002 20.9201 50.8962 20.9201 52.0002C20.9201 53.1042 20.0261 54.0002 18.9201 54.0002Z" fill="#3D2379"/>
<path d="M38 60.0003C30.282 60.0003 24 53.7203 24 46.0003C24 38.2803 30.282 32.0002 38 32.0002C45.7181 32.0002 52.0001 38.2803 52.0001 46.0003C52.0001 53.7203 45.7181 60.0003 38 60.0003ZM38 36.0003C32.486 36.0003 28 40.4863 28 46.0003C28 51.5143 32.486 56.0003 38 56.0003C43.5141 56.0003 48.0001 51.5143 48.0001 46.0003C48.0001 40.4863 43.5141 36.0003 38 36.0003Z" fill="#3D2379"/>
<path d="M36.666 51.0662C36.154 51.0662 35.642 50.8702 35.252 50.4802L32.586 47.8142C31.804 47.0322 31.804 45.7682 32.586 44.9862C33.368 44.2042 34.632 44.2042 35.414 44.9862L36.666 46.2382L40.586 42.3201C41.368 41.5381 42.632 41.5381 43.4141 42.3201C44.1961 43.1021 44.1961 44.3682 43.4141 45.1482L38.08 50.4822C37.69 50.8722 37.178 51.0662 36.666 51.0662Z" fill="#3D2379"/>
</svg>
