<?xml version="1.0" encoding="UTF-8"?><svg id="Layer_2" xmlns="http://www.w3.org/2000/svg" viewBox="0 0 823.19 304.98"><defs><style>.cls-1{fill:#40c646;}.cls-1,.cls-2{fill-rule:evenodd;}.cls-3{stroke-width:7.46px;}.cls-3,.cls-2{fill:none;stroke:#40c646;stroke-miterlimit:10;}.cls-2{stroke-width:4.48px;}</style></defs><g id="Layer_1-2"><g><path class="cls-1" d="M335.55,83.34l-4.4,9.9c-6.13-2.93-12.07-4.4-17.8-4.4-4.6,0-9.04,1.27-13.24,3.81-4.2,2.54-7.63,6.71-10.34,12.57-2.7,5.83-4.07,13.32-4.07,22.44,0,9.58,1.37,17.39,4.1,23.39,2.73,5.99,6.03,10.2,9.87,12.61,3.83,2.41,7.67,3.62,11.43,3.62,5.6,0,12.14-2.05,19.64-6.12l4.97,9.67c-9.37,4.95-18.64,7.43-27.84,7.43-6.3,0-12.1-1.24-17.37-3.68-5.27-2.44-9.87-5.96-13.73-10.55-3.87-4.56-6.8-9.87-8.74-15.93-1.97-6.03-2.93-12.54-2.93-19.45,0-8.86,1.37-16.55,4.1-23.09,2.74-6.58,6.44-11.89,11.1-15.99,4.63-4.1,9.67-7.07,15.07-8.92,5.4-1.86,10.8-2.77,16.14-2.77,8.14,0,16.14,1.82,24.04,5.47h0Zm-143.09,30.88h39.24c0-9.02-1.53-15.73-4.63-20.06-3.1-4.37-7.5-6.55-13.24-6.55-3.7,0-7.03,1.01-10,3-2.97,2.02-5.47,4.98-7.47,8.92-2.03,3.94-3.33,8.83-3.9,14.69h0Zm57.98,4.86h0v4.69h-58.58c0,11.17,1.4,20.03,4.23,26.58,2.83,6.51,6.27,10.98,10.27,13.36,4,2.38,8.03,3.58,12.07,3.58,7.53,0,15.1-2.87,22.64-8.6l5.57,9.38c-5.53,3.39-10.8,5.93-15.77,7.65-4.97,1.69-10.17,2.54-15.57,2.54-5.73,0-11.3-1.17-16.73-3.48-5.44-2.31-10.2-5.7-14.27-10.1-4.07-4.43-7.27-9.74-9.57-15.89-2.3-6.19-3.47-13.09-3.47-20.72,0-6.12,.93-12.21,2.83-18.31,1.9-6.12,4.67-11.56,8.33-16.32,3.7-4.79,8.24-8.57,13.67-11.37,5.43-2.8,11.57-4.2,18.33-4.2,7.47,0,13.61,1.4,18.41,4.2,4.77,2.8,8.43,6.35,10.97,10.68,2.53,4.33,4.3,8.76,5.23,13.35,.93,4.59,1.4,8.89,1.4,12.96h0Zm-117.86-39.32h18.84v96.58h-18.84V79.76h0Zm-4-35.7h0l13.37-13.16,13.47,13.16-13.47,12.9-13.37-12.9h0Zm-18.68,38.53h0l-4,9.77c-6.27-2.61-12.37-3.91-18.37-3.91-5.53,0-9.57,1.14-12.07,3.42-2.5,2.31-3.77,5.02-3.77,8.11,0,2.67,.8,5.02,2.43,7.07,1.63,2.02,5.23,4.82,10.77,8.37l10.83,6.87c12.9,8.14,19.34,17.23,19.34,27.26,0,4.07-.77,7.85-2.33,11.3-1.57,3.45-3.87,6.51-6.83,9.15-3,2.64-6.6,4.66-10.77,6.09-4.17,1.43-8.9,2.15-14.24,2.15-9.83,0-18.84-2.41-26.97-7.23l4.8-9.64c7.2,4.2,14.47,6.29,21.77,6.29,5.13,0,9.27-1.33,12.37-4.04,3.1-2.7,4.63-6.12,4.63-10.26,0-3.75-1.87-7.43-5.57-11.08-1.63-1.56-5.7-4.43-12.2-8.57l-7.04-4.56c-4.37-2.8-7.9-5.5-10.57-8.11-2.67-2.6-4.67-5.4-6-8.4-1.33-2.96-2-6.06-2-9.25,0-4.5,1.4-8.73,4.17-12.67,2.77-3.94,6.67-7.07,11.77-9.38,5.07-2.31,10.77-3.49,17.07-3.49,7.57,0,15.14,1.56,22.77,4.72Z"/><path class="cls-1" d="M392.68,154.16v-52.59h38.92v8.89h-28.28v11.68h26.29v8.89h-26.29v14.25h29.3v8.89h-39.95Zm83.43,0h-9.33v-5.59c-1.55,2.18-3.4,3.81-5.52,4.91-2.12,1.09-4.26,1.64-6.41,1.64-4.39,0-8.15-1.76-11.29-5.3-3.12-3.54-4.69-8.46-4.69-14.79s1.52-11.38,4.57-14.75c3.05-3.37,6.89-5.04,11.54-5.04,4.26,0,7.96,1.77,11.07,5.31v-18.97h10.06v52.59h0Zm-26.88-19.79c0,4.08,.56,7.03,1.68,8.85,1.63,2.64,3.89,3.97,6.81,3.97,2.31,0,4.28-.99,5.9-2.97,1.63-1.98,2.44-4.93,2.44-8.88,0-4.39-.78-7.55-2.36-9.49-1.58-1.93-3.59-2.9-6.05-2.9s-4.38,.95-6,2.86c-1.6,1.91-2.41,4.76-2.41,8.56h0Zm61.54,19.79v-5.7c-1.39,2.03-3.22,3.65-5.48,4.86-2.26,1.2-4.65,1.8-7.16,1.8s-4.87-.56-6.9-1.69c-2.04-1.12-3.51-2.72-4.42-4.75-.92-2.04-1.37-4.86-1.37-8.46v-24.18h10.06v17.55c0,5.37,.18,8.65,.56,9.87,.37,1.21,1.04,2.18,2.03,2.88,.98,.71,2.23,1.07,3.75,1.07,1.73,0,3.27-.48,4.64-1.42,1.37-.94,2.3-2.12,2.8-3.53,.5-1.41,.76-4.83,.76-10.31v-16.11h10.06v38.12h-9.33Zm52.43-26.81l-9.92,1.76c-.33-1.97-1.09-3.45-2.28-4.46-1.19-.99-2.72-1.49-4.6-1.49-2.51,0-4.52,.87-6.01,2.61-1.49,1.74-2.24,4.64-2.24,8.72,0,4.53,.76,7.72,2.28,9.59,1.52,1.87,3.55,2.8,6.09,2.8,1.91,0,3.48-.55,4.69-1.64,1.22-1.09,2.08-2.96,2.58-5.63l9.91,1.69c-1.03,4.55-3,7.99-5.91,10.32-2.91,2.33-6.82,3.49-11.73,3.49-5.56,0-10-1.76-13.31-5.28-3.32-3.53-4.97-8.4-4.97-14.63s1.66-11.2,4.98-14.71c3.32-3.51,7.81-5.26,13.48-5.26,4.63,0,8.31,1,11.05,3,2.73,2,4.69,5.03,5.89,9.12h0Zm14.7,.44l-9.11-1.62c1.03-3.72,2.8-6.48,5.31-8.26,2.51-1.79,6.24-2.68,11.19-2.68,4.49,0,7.85,.53,10.05,1.59,2.19,1.07,3.75,2.41,4.64,4.05,.89,1.64,1.35,4.64,1.35,9.02l-.15,11.75c0,3.34,.16,5.81,.48,7.4,.32,1.59,.92,3.29,1.8,5.1h-9.99c-.26-.66-.59-1.64-.97-2.94-.16-.6-.28-.99-.35-1.18-1.71,1.69-3.55,2.95-5.51,3.79-1.96,.85-4.04,1.27-6.26,1.27-3.9,0-6.99-1.07-9.24-3.19-2.25-2.12-3.38-4.81-3.38-8.07,0-2.14,.51-4.06,1.54-5.75,1.03-1.68,2.46-2.97,4.32-3.87,1.85-.89,4.52-1.68,8-2.35,4.7-.88,7.97-1.71,9.78-2.47v-1.02c0-1.96-.48-3.35-1.43-4.2-.97-.83-2.78-1.25-5.43-1.25-1.8,0-3.2,.36-4.2,1.08-1.02,.71-1.82,1.97-2.45,3.77h0Zm13.51,8.15c-1.28,.43-3.33,.94-6.13,1.54-2.79,.6-4.63,1.19-5.48,1.75-1.31,.94-1.97,2.12-1.97,3.55s.53,2.63,1.58,3.66c1.05,1.03,2.39,1.54,4.02,1.54,1.81,0,3.55-.6,5.2-1.79,1.21-.92,2.02-2.02,2.4-3.34,.26-.86,.39-2.5,.39-4.91v-2.01h0Zm36.81-19.9v8.01h-6.9v15.44c0,3.13,.06,4.96,.2,5.47,.13,.51,.43,.94,.91,1.29,.47,.33,1.03,.5,1.7,.5,.94,0,2.29-.32,4.06-.97l.84,7.83c-2.34,1-4.98,1.51-7.94,1.51-1.81,0-3.44-.31-4.9-.92-1.46-.61-2.52-1.41-3.19-2.37-.69-.98-1.15-2.29-1.42-3.95-.21-1.18-.32-3.55-.32-7.14v-16.69h-4.63v-8.01h4.63v-7.57l10.06-5.95v13.51h6.9Zm6.61-5.14v-9.33h10.06v9.33h-10.06Zm0,43.26v-38.12h10.06v38.12h-10.06Zm17.62-19.53c0-3.35,.82-6.6,2.47-9.73,1.65-3.15,3.99-5.53,7.01-7.18,3.02-1.65,6.39-2.48,10.12-2.48,5.77,0,10.48,1.87,14.16,5.62,3.68,3.76,5.52,8.48,5.52,14.21s-1.86,10.56-5.57,14.36c-3.72,3.79-8.4,5.69-14.04,5.69-3.49,0-6.82-.8-9.99-2.37-3.16-1.58-5.57-3.89-7.22-6.95-1.65-3.05-2.47-6.77-2.47-11.15h0Zm10.36,.54c0,3.78,.89,6.68,2.68,8.69,1.8,2.02,4,3.02,6.63,3.02s4.82-1,6.6-3.02c1.78-2.01,2.67-4.93,2.67-8.76s-.89-6.61-2.67-8.62c-1.78-2.02-3.98-3.02-6.6-3.02s-4.83,1-6.63,3.02c-1.79,2.01-2.68,4.91-2.68,8.69h0Zm71.08,18.99h-10.06v-19.43c0-4.11-.22-6.77-.65-7.97-.44-1.21-1.14-2.14-2.12-2.82-.98-.67-2.15-1-3.53-1-1.76,0-3.34,.48-4.74,1.43-1.41,.96-2.36,2.23-2.88,3.79-.53,1.58-.78,4.49-.78,8.75v17.24h-10.06v-38.12h9.33v5.59c3.34-4.27,7.54-6.4,12.62-6.4,2.23,0,4.27,.4,6.12,1.2,1.86,.81,3.26,1.82,4.2,3.06,.96,1.25,1.62,2.66,1.98,4.23,.38,1.58,.56,3.83,.56,6.77v23.66Z"/><path class="cls-2" d="M758.08,84.37c11.27,0,20.41,9.14,20.41,20.41s-9.14,20.41-20.41,20.41-20.41-9.14-20.41-20.41,9.14-20.41,20.41-20.41Z"/><path class="cls-1" d="M748.86,116.36v-21.79h9.27c2.33,0,4.02,.2,5.08,.59,1.06,.39,1.9,1.09,2.54,2.08,.63,1.01,.95,2.15,.95,3.44,0,1.64-.48,2.99-1.44,4.05-.96,1.07-2.39,1.73-4.3,2.01,.95,.55,1.73,1.16,2.34,1.82,.62,.67,1.45,1.85,2.5,3.54l2.66,4.25h-5.26l-3.15-4.76c-1.13-1.69-1.91-2.76-2.33-3.2-.42-.44-.86-.74-1.32-.9-.47-.16-1.21-.24-2.23-.24h-.89v9.1h-4.41Zm4.41-12.57h3.26c2.11,0,3.42-.09,3.95-.27,.52-.18,.94-.49,1.23-.92,.3-.44,.45-.99,.45-1.64,0-.74-.2-1.32-.59-1.78-.39-.45-.94-.74-1.65-.85-.36-.05-1.43-.08-3.21-.08h-3.44v5.54Z"/><path class="cls-1" d="M53.92,243.3l7.38-.73c.44,2.47,1.33,4.27,2.69,5.43,1.35,1.16,3.17,1.74,5.47,1.74,2.42,0,4.25-.51,5.48-1.54,1.23-1.03,1.85-2.23,1.85-3.61,0-.89-.26-1.64-.78-2.27-.51-.62-1.42-1.16-2.71-1.61-.88-.31-2.89-.85-6.02-1.64-4.04-1.01-6.87-2.25-8.5-3.72-2.29-2.07-3.44-4.59-3.44-7.56,0-1.91,.54-3.7,1.61-5.37,1.08-1.66,2.63-2.93,4.66-3.8,2.03-.87,4.47-1.31,7.35-1.31,4.68,0,8.21,1.04,10.57,3.12,2.37,2.08,3.61,4.85,3.73,8.33l-7.58,.26c-.32-1.93-1.01-3.32-2.07-4.17-1.05-.85-2.64-1.27-4.75-1.27s-3.89,.45-5.12,1.36c-.79,.58-1.19,1.36-1.19,2.34,0,.89,.38,1.65,1.12,2.28,.95,.81,3.26,1.65,6.93,2.52,3.67,.86,6.38,1.77,8.13,2.69,1.76,.93,3.14,2.2,4.13,3.81,.99,1.61,1.49,3.6,1.49,5.96,0,2.14-.59,4.16-1.79,6.03-1.19,1.87-2.88,3.27-5.06,4.18-2.18,.92-4.9,1.37-8.15,1.37-4.73,0-8.37-1.09-10.91-3.28-2.54-2.18-4.05-5.36-4.54-9.54h0Zm43.89-25.32v13.88c2.33-2.76,5.12-4.15,8.35-4.15,1.66,0,3.16,.3,4.5,.91,1.33,.62,2.34,1.39,3.02,2.35,.68,.95,1.14,2.01,1.39,3.16,.25,1.16,.37,2.96,.37,5.39v15.9h-7.17v-14.32c0-2.84-.14-4.65-.41-5.41-.28-.77-.77-1.38-1.46-1.82-.7-.45-1.57-.68-2.62-.68-1.2,0-2.28,.29-3.23,.87-.95,.58-1.64,1.45-2.08,2.62-.44,1.16-.66,2.89-.66,5.16v13.58h-7.17v-37.45h7.17Zm30.23,18.67l-6.49-1.15c.73-2.65,2-4.61,3.78-5.88,1.79-1.27,4.45-1.91,7.97-1.91,3.2,0,5.59,.37,7.16,1.13,1.56,.76,2.67,1.72,3.31,2.89,.64,1.17,.96,3.3,.96,6.43l-.1,8.37c0,2.38,.11,4.14,.34,5.27,.23,1.13,.65,2.35,1.28,3.64h-7.11c-.18-.47-.42-1.17-.69-2.09-.11-.43-.2-.71-.25-.84-1.22,1.2-2.53,2.1-3.92,2.7-1.4,.6-2.88,.91-4.46,.91-2.78,0-4.98-.76-6.58-2.28-1.6-1.51-2.41-3.43-2.41-5.75,0-1.53,.37-2.89,1.1-4.1,.73-1.19,1.75-2.12,3.08-2.75,1.32-.64,3.22-1.2,5.7-1.67,3.35-.63,5.68-1.22,6.97-1.76v-.72c0-1.39-.34-2.39-1.02-2.99-.69-.59-1.98-.89-3.87-.89-1.28,0-2.28,.25-2.99,.77-.72,.51-1.3,1.4-1.74,2.68h0Zm9.63,5.81c-.92,.31-2.37,.67-4.37,1.1-1.99,.43-3.3,.84-3.91,1.25-.93,.67-1.4,1.51-1.4,2.53s.37,1.87,1.12,2.61c.75,.73,1.7,1.1,2.86,1.1,1.29,0,2.53-.43,3.71-1.27,.86-.65,1.44-1.44,1.71-2.38,.18-.61,.28-1.78,.28-3.5v-1.43h0Zm13.92-14.18h6.69v3.98c.87-1.36,2.04-2.46,3.52-3.3,1.48-.84,3.13-1.25,4.93-1.25,3.15,0,5.82,1.24,8.02,3.71,2.2,2.47,3.3,5.92,3.3,10.33s-1.11,8.06-3.32,10.58c-2.21,2.52-4.9,3.78-8.05,3.78-1.5,0-2.86-.3-4.08-.9-1.21-.59-2.5-1.61-3.84-3.06v13.58h-7.17v-37.45h0Zm7.06,13.16c0,3.06,.6,5.32,1.81,6.78,1.2,1.46,2.68,2.19,4.4,2.19s3.05-.67,4.16-2.01c1.11-1.34,1.66-3.54,1.66-6.6,0-2.86-.57-4.98-1.71-6.36-1.13-1.39-2.55-2.08-4.23-2.08s-3.21,.68-4.36,2.04c-1.16,1.36-1.74,3.37-1.74,6.04h0Zm25.1-16.82v-6.64h7.17v6.64h-7.17Zm0,30.81v-27.15h7.17v27.15h-7.17Zm39.22,0h-7.17v-13.84c0-2.93-.16-4.82-.46-5.68-.31-.86-.81-1.52-1.51-2.01-.7-.48-1.53-.71-2.51-.71-1.26,0-2.38,.34-3.37,1.02-1,.68-1.68,1.59-2.05,2.7-.38,1.13-.56,3.2-.56,6.23v12.28h-7.17v-27.15h6.64v3.98c2.38-3.04,5.37-4.56,8.99-4.56,1.59,0,3.04,.29,4.36,.85,1.32,.58,2.32,1.3,2.99,2.18,.68,.89,1.15,1.89,1.41,3.02,.27,1.12,.4,2.73,.4,4.82v16.85h0Zm6.58,1.73l8.21,.99c.14,.97,.45,1.63,.94,2,.69,.51,1.76,.78,3.23,.78,1.87,0,3.28-.28,4.22-.85,.63-.37,1.11-.98,1.43-1.81,.22-.59,.33-1.7,.33-3.3l.04-3.97c-2.16,2.96-4.88,4.43-8.16,4.43-3.64,0-6.54-1.54-8.67-4.62-1.67-2.43-2.51-5.47-2.51-9.08,0-4.55,1.1-8.02,3.29-10.42,2.19-2.4,4.92-3.6,8.18-3.6s6.13,1.47,8.31,4.42v-3.85h6.69v24.34c0,3.2-.26,5.6-.79,7.18-.52,1.59-1.26,2.82-2.22,3.73-.95,.9-2.22,1.61-3.82,2.12-1.6,.51-3.61,.77-6.04,.77-4.6,0-7.86-.79-9.79-2.37-1.93-1.59-2.89-3.58-2.89-6.02,0-.23,0-.53,.03-.87h0Zm6.43-15.85c0,2.88,.56,4.98,1.66,6.31,1.12,1.33,2.49,2.01,4.12,2.01,1.74,0,3.23-.69,4.43-2.06,1.21-1.37,1.81-3.39,1.81-6.08s-.58-4.89-1.73-6.25c-1.15-1.36-2.62-2.04-4.39-2.04s-3.13,.67-4.25,2.01c-1.11,1.33-1.66,3.36-1.66,6.1h0Zm64.74,.31l7.32,2.25c-1.12,4.12-3,7.18-5.61,9.19-2.62,2-5.93,3-9.95,3-4.98,0-9.07-1.7-12.27-5.1-3.2-3.4-4.8-8.05-4.8-13.95,0-6.23,1.61-11.08,4.83-14.53,3.22-3.45,7.45-5.18,12.7-5.18,4.59,0,8.31,1.36,11.17,4.07,1.71,1.6,2.98,3.9,3.84,6.91l-7.48,1.78c-.45-1.94-1.37-3.47-2.77-4.59-1.41-1.12-3.12-1.68-5.13-1.68-2.78,0-5.04,.99-6.77,2.99-1.73,1.99-2.6,5.21-2.6,9.68,0,4.73,.85,8.1,2.56,10.1,1.71,2.01,3.92,3.02,6.65,3.02,2.01,0,3.75-.63,5.2-1.92,1.45-1.28,2.49-3.29,3.12-6.03h0Zm19.1-4.97l-6.49-1.15c.73-2.65,2-4.61,3.78-5.88,1.79-1.27,4.45-1.91,7.97-1.91,3.2,0,5.59,.37,7.16,1.13,1.56,.76,2.67,1.72,3.31,2.89,.64,1.17,.96,3.3,.96,6.43l-.1,8.37c0,2.38,.11,4.14,.34,5.27,.23,1.13,.65,2.35,1.28,3.64h-7.11c-.18-.47-.42-1.17-.69-2.09-.11-.43-.2-.71-.25-.84-1.22,1.2-2.53,2.1-3.92,2.7-1.4,.6-2.88,.91-4.46,.91-2.78,0-4.98-.76-6.58-2.28-1.6-1.51-2.41-3.43-2.41-5.75,0-1.53,.37-2.89,1.1-4.1,.73-1.19,1.75-2.12,3.08-2.75,1.32-.64,3.22-1.2,5.7-1.67,3.35-.63,5.68-1.22,6.97-1.76v-.72c0-1.39-.34-2.39-1.02-2.99-.69-.59-1.98-.89-3.87-.89-1.28,0-2.28,.25-2.99,.77-.72,.51-1.3,1.4-1.74,2.68h0Zm9.62,5.81c-.91,.31-2.37,.67-4.37,1.1-1.99,.43-3.3,.84-3.91,1.25-.93,.67-1.4,1.51-1.4,2.53s.37,1.87,1.12,2.61c.75,.73,1.7,1.1,2.86,1.1,1.29,0,2.53-.43,3.71-1.27,.86-.65,1.44-1.44,1.71-2.38,.18-.61,.28-1.78,.28-3.5v-1.43h0Zm20.99,12.97h-7.17v-27.15h6.64v3.85c1.14-1.82,2.17-3.02,3.09-3.58,.92-.57,1.95-.84,3.11-.84,1.64,0,3.22,.45,4.73,1.35l-2.22,6.26c-1.21-.78-2.34-1.18-3.37-1.18s-1.87,.28-2.56,.83c-.7,.56-1.25,1.55-1.65,3-.4,1.45-.6,4.48-.6,9.09v8.37h0Zm29.2-8.58l7.17,1.2c-.92,2.62-2.37,4.62-4.35,6-1.99,1.37-4.47,2.06-7.45,2.06-4.72,0-8.21-1.54-10.47-4.63-1.79-2.48-2.68-5.6-2.68-9.37,0-4.5,1.18-8.03,3.52-10.58,2.35-2.55,5.32-3.83,8.91-3.83,4.03,0,7.21,1.33,9.55,4,2.33,2.67,3.44,6.76,3.34,12.27h-17.94c.05,2.13,.63,3.78,1.73,4.97,1.1,1.19,2.48,1.78,4.12,1.78,1.12,0,2.07-.3,2.82-.92,.77-.61,1.34-1.6,1.73-2.96h0Zm.42-7.27c-.05-2.08-.58-3.67-1.6-4.75-1.02-1.09-2.26-1.63-3.72-1.63-1.56,0-2.85,.58-3.87,1.72-1.02,1.14-1.52,2.7-1.5,4.66h10.7Zm28.68,7.27l7.17,1.2c-.91,2.62-2.37,4.62-4.35,6-1.99,1.37-4.47,2.06-7.44,2.06-4.72,0-8.21-1.54-10.47-4.63-1.79-2.48-2.68-5.6-2.68-9.37,0-4.5,1.18-8.03,3.52-10.58,2.35-2.55,5.32-3.83,8.91-3.83,4.03,0,7.21,1.33,9.55,4,2.33,2.67,3.44,6.76,3.34,12.27h-17.94c.05,2.13,.63,3.78,1.73,4.97,1.1,1.19,2.48,1.78,4.12,1.78,1.12,0,2.07-.3,2.83-.92,.77-.61,1.34-1.6,1.73-2.96h0Zm.42-7.27c-.05-2.08-.58-3.67-1.6-4.75-1.02-1.09-2.26-1.63-3.72-1.63-1.56,0-2.85,.58-3.87,1.72-1.02,1.14-1.52,2.7-1.5,4.66h10.7Zm19.83,15.85h-7.17v-27.15h6.64v3.85c1.14-1.82,2.17-3.02,3.09-3.58,.91-.57,1.95-.84,3.11-.84,1.64,0,3.22,.45,4.73,1.35l-2.22,6.26c-1.21-.78-2.34-1.18-3.37-1.18s-1.87,.28-2.56,.83c-.7,.56-1.25,1.55-1.65,3-.4,1.45-.6,4.48-.6,9.09v8.37h0Zm10.94-7.64l7.22-1.1c.3,1.39,.92,2.44,1.87,3.16,.93,.72,2.25,1.08,3.93,1.08,1.86,0,3.25-.34,4.19-1.02,.63-.48,.94-1.12,.94-1.93,0-.54-.17-1-.51-1.35-.36-.34-1.16-.66-2.4-.95-5.8-1.28-9.47-2.45-11.02-3.51-2.15-1.47-3.23-3.51-3.23-6.12,0-2.36,.93-4.34,2.79-5.95,1.86-1.6,4.73-2.41,8.63-2.41s6.48,.61,8.28,1.82c1.8,1.22,3.05,3.02,3.73,5.4l-6.75,1.26c-.29-1.06-.84-1.88-1.66-2.45-.81-.57-1.97-.85-3.48-.85-1.9,0-3.26,.26-4.09,.79-.55,.37-.82,.86-.82,1.46,0,.51,.23,.95,.71,1.31,.65,.48,2.89,1.15,6.73,2.02,3.84,.87,6.51,1.94,8.03,3.2,1.51,1.27,2.26,3.06,2.26,5.34,0,2.48-1.04,4.63-3.12,6.42-2.08,1.79-5.15,2.69-9.23,2.69-3.7,0-6.63-.75-8.79-2.24-2.15-1.49-3.57-3.51-4.23-6.08h0Zm44.26-4.5l7.38-.73c.44,2.47,1.33,4.27,2.69,5.43,1.35,1.16,3.17,1.74,5.47,1.74,2.42,0,4.25-.51,5.48-1.54,1.23-1.03,1.85-2.23,1.85-3.61,0-.89-.26-1.64-.78-2.27-.51-.62-1.42-1.16-2.71-1.61-.88-.31-2.89-.85-6.02-1.64-4.04-1.01-6.87-2.25-8.5-3.72-2.29-2.07-3.44-4.59-3.44-7.56,0-1.91,.54-3.7,1.61-5.37,1.08-1.66,2.63-2.93,4.66-3.8,2.03-.87,4.47-1.31,7.35-1.31,4.68,0,8.21,1.04,10.57,3.12,2.37,2.08,3.61,4.85,3.73,8.33l-7.58,.26c-.32-1.93-1.01-3.32-2.07-4.17-1.05-.85-2.64-1.27-4.75-1.27s-3.89,.45-5.12,1.36c-.79,.58-1.19,1.36-1.19,2.34,0,.89,.38,1.65,1.13,2.28,.95,.81,3.26,1.65,6.93,2.52,3.67,.86,6.38,1.77,8.13,2.69,1.76,.93,3.14,2.2,4.13,3.81,.99,1.61,1.49,3.6,1.49,5.96,0,2.14-.59,4.16-1.79,6.03-1.19,1.87-2.88,3.27-5.06,4.18-2.18,.92-4.9,1.37-8.15,1.37-4.73,0-8.37-1.09-10.91-3.28-2.54-2.18-4.05-5.36-4.54-9.54h0Zm36.83-18.67v-6.64h7.17v6.64h-7.17Zm0,30.81v-27.15h7.17v27.15h-7.17Zm39.22,0h-7.17v-13.84c0-2.93-.16-4.82-.46-5.68-.31-.86-.81-1.52-1.51-2.01-.7-.48-1.53-.71-2.51-.71-1.26,0-2.38,.34-3.37,1.02-1,.68-1.68,1.59-2.05,2.7-.38,1.13-.56,3.2-.56,6.23v12.28h-7.17v-27.15h6.64v3.98c2.38-3.04,5.37-4.56,8.99-4.56,1.59,0,3.04,.29,4.36,.85,1.32,.58,2.32,1.3,2.99,2.18,.68,.89,1.15,1.89,1.41,3.02,.27,1.12,.4,2.73,.4,4.82v16.85h0Zm30.91-19.09l-7.06,1.26c-.23-1.4-.77-2.46-1.62-3.17-.85-.71-1.94-1.06-3.28-1.06-1.79,0-3.22,.62-4.28,1.86-1.06,1.24-1.59,3.31-1.59,6.21,0,3.23,.54,5.5,1.62,6.83,1.08,1.33,2.53,2,4.34,2,1.36,0,2.48-.39,3.34-1.17,.87-.78,1.48-2.11,1.84-4.01l7.06,1.2c-.73,3.24-2.14,5.69-4.21,7.35-2.08,1.66-4.86,2.49-8.35,2.49-3.96,0-7.12-1.26-9.48-3.76-2.36-2.51-3.54-5.98-3.54-10.42s1.18-7.98,3.55-10.48c2.36-2.5,5.56-3.75,9.6-3.75,3.29,0,5.92,.71,7.87,2.14,1.94,1.42,3.34,3.58,4.19,6.49h0Zm21.14,10.51l7.17,1.2c-.92,2.62-2.37,4.62-4.35,6-1.99,1.37-4.47,2.06-7.45,2.06-4.72,0-8.21-1.54-10.47-4.63-1.79-2.48-2.68-5.6-2.68-9.37,0-4.5,1.18-8.03,3.52-10.58,2.35-2.55,5.32-3.83,8.91-3.83,4.03,0,7.21,1.33,9.55,4,2.33,2.67,3.44,6.76,3.34,12.27h-17.94c.05,2.13,.63,3.78,1.73,4.97,1.1,1.19,2.48,1.78,4.12,1.78,1.12,0,2.07-.3,2.82-.92,.77-.61,1.34-1.6,1.73-2.96h0Zm.42-7.27c-.05-2.08-.58-3.67-1.6-4.75-1.02-1.09-2.26-1.63-3.72-1.63-1.56,0-2.85,.58-3.87,1.72-1.02,1.14-1.52,2.7-1.5,4.66h10.7Zm44.31,15.85h-7.17v-27.11c-2.62,2.46-5.7,4.28-9.26,5.46v-6.54c1.87-.61,3.9-1.77,6.09-3.49,2.2-1.71,3.7-3.71,4.52-5.98h5.82v37.66h0Zm10.99-8.7l6.96-.77c.17,1.42,.61,2.48,1.32,3.16,.71,.69,1.65,1.03,2.81,1.03,1.47,0,2.72-.69,3.75-2.06,1.03-1.37,1.68-4.21,1.97-8.51-1.8,2.09-4.05,3.14-6.77,3.14-2.94,0-5.48-1.13-7.62-3.41-2.14-2.28-3.2-5.23-3.2-8.88s1.12-6.86,3.38-9.18c2.26-2.33,5.13-3.49,8.62-3.49,3.79,0,6.91,1.47,9.35,4.41,2.43,2.95,3.65,7.79,3.65,14.53s-1.26,11.8-3.79,14.84c-2.53,3.04-5.82,4.56-9.89,4.56-2.92,0-5.27-.79-7.08-2.35-1.8-1.56-2.96-3.91-3.46-7.03h0Zm16.16-15.71c0-2.31-.53-4.11-1.59-5.38-1.06-1.27-2.29-1.91-3.68-1.91s-2.42,.52-3.3,1.57c-.88,1.05-1.32,2.76-1.32,5.13s.48,4.19,1.43,5.32c.95,1.12,2.13,1.69,3.56,1.69s2.54-.54,3.48-1.63c.94-1.09,1.41-2.69,1.41-4.79h0Zm12.93,15.71l6.96-.77c.17,1.42,.61,2.48,1.32,3.16,.71,.69,1.65,1.03,2.81,1.03,1.47,0,2.72-.69,3.75-2.06,1.03-1.37,1.68-4.21,1.97-8.51-1.8,2.09-4.05,3.14-6.76,3.14-2.94,0-5.48-1.13-7.62-3.41-2.14-2.28-3.2-5.23-3.2-8.88s1.12-6.86,3.38-9.18c2.26-2.33,5.13-3.49,8.62-3.49,3.79,0,6.91,1.47,9.35,4.41,2.43,2.95,3.65,7.79,3.65,14.53s-1.26,11.8-3.79,14.84c-2.53,3.04-5.82,4.56-9.89,4.56-2.92,0-5.27-.79-7.08-2.35-1.8-1.56-2.96-3.91-3.46-7.03h0Zm16.16-15.71c0-2.31-.53-4.11-1.6-5.38-1.05-1.27-2.28-1.91-3.68-1.91s-2.42,.52-3.3,1.57c-.88,1.05-1.32,2.76-1.32,5.13s.48,4.19,1.43,5.32c.95,1.12,2.13,1.69,3.57,1.69s2.54-.54,3.48-1.63c.94-1.09,1.41-2.69,1.41-4.79h0Zm12.77,14.79l7.17-.74c.21,1.62,.81,2.91,1.81,3.86,1.01,.95,2.17,1.42,3.49,1.42,1.5,0,2.77-.61,3.81-1.84,1.04-1.23,1.56-3.08,1.56-5.54,0-2.32-.51-4.05-1.55-5.21-1.03-1.16-2.37-1.73-4.03-1.73-2.07,0-3.92,.91-5.56,2.72l-5.81-.84,3.66-19.46h18.99v6.69h-13.54l-1.13,6.37c1.6-.79,3.23-1.19,4.91-1.19,3.19,0,5.89,1.16,8.11,3.49,2.22,2.32,3.33,5.34,3.33,9.05,0,3.1-.9,5.85-2.69,8.28-2.44,3.31-5.83,4.97-10.15,4.97-3.46,0-6.29-.93-8.47-2.79-2.19-1.87-3.49-4.36-3.91-7.51Z"/><line class="cls-3" x1="363.19" y1="57.18" x2="363.19" y2="197.04"/><rect class="cls-3" x="3.73" y="3.73" width="815.73" height="297.52" rx="19.09" ry="19.09"/></g></g></svg>